<?xml version="1.0" encoding="UTF-8" standalone="no"?>
<!-- Generator: Adobe Illustrator 20.1.0, SVG Export Plug-In . SVG Version: 6.00 Build 0)  -->

<svg
   xmlns:dc="http://purl.org/dc/elements/1.1/"
   xmlns:cc="http://creativecommons.org/ns#"
   xmlns:rdf="http://www.w3.org/1999/02/22-rdf-syntax-ns#"
   xmlns:svg="http://www.w3.org/2000/svg"
   xmlns="http://www.w3.org/2000/svg"
   xmlns:sodipodi="http://sodipodi.sourceforge.net/DTD/sodipodi-0.dtd"
   xmlns:inkscape="http://www.inkscape.org/namespaces/inkscape"
   version="1.1"
   id="Layer_1"
   x="0px"
   y="0px"
   viewBox="0 0 400 225"
   style="enable-background:new 0 0 400 225;"
   xml:space="preserve"
   sodipodi:docname="icon.svg"
   inkscape:version="0.91 r13725"><metadata
     id="metadata919"><rdf:RDF><cc:Work
         rdf:about=""><dc:format>image/svg+xml</dc:format><dc:type
           rdf:resource="http://purl.org/dc/dcmitype/StillImage" /><dc:title>questionaire</dc:title></cc:Work></rdf:RDF></metadata><defs
     id="defs917" /><sodipodi:namedview
     pagecolor="#ffffff"
     bordercolor="#666666"
     borderopacity="1"
     objecttolerance="10"
     gridtolerance="10"
     guidetolerance="10"
     inkscape:pageopacity="0"
     inkscape:pageshadow="2"
     inkscape:window-width="1861"
     inkscape:window-height="1056"
     id="namedview915"
     showgrid="false"
     inkscape:zoom="1.60375"
     inkscape:cx="103.89779"
     inkscape:cy="-24.125568"
     inkscape:window-x="59"
     inkscape:window-y="24"
     inkscape:window-maximized="1"
     inkscape:current-layer="Layer_1" /><style
     type="text/css"
     id="style868">
	.st0{fill:#FFC234;}
	.st1{fill:#E1AE37;}
	.st2{fill:#E29563;}
	.st3{fill:#3F4040;}
	.st4{fill:#FFFFFF;}
	.st5{fill:#D66F6E;}
	.st6{fill:#C9C8CB;}
	.st7{fill:#F7A896;}
	.st8{fill:#F7A896;fill-opacity:0.5;}
	.st9{fill:#EF5331;}
	.st10{opacity:0.8;fill:#C9C8CB;enable-background:new    ;}
	.st11{fill:none;}
</style><title
     id="title870">questionaire</title><rect
     class="st11"
     width="400"
     height="225"
     id="rect910"
     x="0"
     y="0"
     style="fill:none" /><path
     style="fill:#c9c8cb"
     d="m 3.4518336,-126.58913 c -5.3,0 -9.601565,4.29961 -9.601565,9.59961 v 36.000004 20.69922 c 0,5.3 4.301565,9.59961 9.601565,9.59961 H 60.151054 c 5.3,0 9.599613,-4.29961 9.599613,-9.59961 v -20.69922 -36.000004 c 0,-5.3 -4.299613,-9.59961 -9.599613,-9.59961 h -12.40039 -31.90039 z m 0.89844,10.5 h 9.9003904 35.09961 9.90039 v 24.500004 30.39844 H 4.3502736 v -30.39844 z"
     id="path888-3-1"
     inkscape:connector-curvature="0" /><g
     id="g4951"
     transform="translate(118.09829,-253.00856)"><g
       transform="matrix(0.83925415,0,0,0.83925415,1.2033879,128.32988)"
       id="g4550"><g
         id="g4534"><g
           transform="translate(1.2470773,-1.2470804)"
           id="g4516"><g
             id="g1766"
             transform="matrix(0.6740365,0,0,0.6740365,5.5155169,112.74421)"><path
               inkscape:connector-curvature="0"
               id="path888-3-3"
               d="m 199.86649,269.98141 c -5.3,0 -9.60157,4.29961 -9.60157,9.59961 l 0,36 0,20.69922 c 0,5.3 4.30157,9.59961 9.60157,9.59961 l 56.69922,0 c 5.3,0 9.59961,-4.29961 9.59961,-9.59961 l 0,-20.69922 0,-36 c 0,-5.3 -4.29961,-9.59961 -9.59961,-9.59961 l -12.40039,0 -31.90039,0 z m 0.89844,10.5 9.90039,0 35.09961,0 9.90039,0 0,24.5 0,30.39844 -54.90039,0 0,-30.39844 z"
               style="fill:#c9c8cb" /><path
               inkscape:connector-curvature="0"
               id="rect1621"
               d="m 228.4678,287.93071 c -6.32797,0 -11.15898,2.77337 -14.49223,8.32012 -0.39061,0.62499 -0.28605,1.17186 0.31289,1.64058 l 5.15612,3.90695 c 0.18229,0.15626 0.42929,0.23437 0.74178,0.23437 0.41666,0 0.74178,-0.15623 0.97615,-0.46874 1.38018,-1.7708 2.50033,-2.96909 3.35969,-3.59406 0.8854,-0.62499 2.00555,-0.93749 3.35968,-0.93749 1.24997,0 2.36323,0.33894 3.33976,1.01601 0.97654,0.67706 1.46481,1.44448 1.46481,2.30385 0,0.98953 -0.2608,1.78459 -0.78162,2.38353 -0.52082,0.59895 -1.40661,1.18487 -2.65658,1.75778 -1.64058,0.72914 -3.14445,1.85503 -4.51161,3.37843 -1.36715,1.5234 -2.05073,3.15708 -2.05073,4.90184 l 0,1.40737 c 0,0.36456 0.11719,0.66324 0.35156,0.89765 0.23436,0.23436 0.53422,0.35154 0.8988,0.35154 l 7.49982,0 c 0.36458,0 0.66444,-0.11718 0.89881,-0.35154 0.23436,-0.2344 0.35155,-0.53309 0.35155,-0.89765 0,-0.49477 0.27917,-1.14045 0.83905,-1.93471 0.55988,-0.79426 1.26989,-1.43763 2.12924,-1.93237 0.83331,-0.46875 1.47092,-0.841 1.91363,-1.11444 0.44269,-0.27343 1.04242,-0.72836 1.79761,-1.36637 0.75519,-0.63799 1.33422,-1.26297 1.73785,-1.87495 0.40364,-0.61195 0.76782,-1.40008 1.09333,-2.36362 0.32551,-0.9635 0.48866,-2.01817 0.48866,-3.16399 0,-2.29161 -0.72263,-4.41357 -2.16792,-6.36664 -1.44527,-1.95309 -3.249,-3.46385 -5.41041,-4.53154 -2.1614,-1.06768 -4.37412,-1.60191 -6.63969,-1.60191 z m -4.53153,30.00045 c -0.36458,0 -0.66444,0.11604 -0.8988,0.3504 -0.23437,0.23435 -0.35156,0.5342 -0.35156,0.89879 l 0,7.49982 c 0,0.3646 0.11719,0.66447 0.35156,0.89882 0.23436,0.23435 0.53422,0.35156 0.8988,0.35156 l 7.49982,0 c 0.36458,0 0.66444,-0.11721 0.89881,-0.35156 0.23436,-0.23435 0.35155,-0.53421 0.35155,-0.89882 l 0,-7.49982 c 0,-0.36459 -0.11719,-0.66444 -0.35155,-0.89879 -0.23437,-0.23436 -0.53423,-0.3504 -0.89881,-0.3504 z"
               style="opacity:1;fill:#4d4d4d;fill-opacity:1;stroke:none;stroke-width:0.5999856;stroke-linecap:butt;stroke-linejoin:miter;stroke-miterlimit:4;stroke-dasharray:none;stroke-dashoffset:0;stroke-opacity:1" /></g></g><g
           transform="translate(-1.2470772,-1.247077)"
           id="g4528"><g
             id="g1756"
             transform="matrix(0.6740365,0,0,0.6740365,5.5155169,112.74421)"><path
               inkscape:connector-curvature="0"
               id="path888-3"
               d="m 26.522223,269.35797 c -5.3,0 -9.601565,4.29961 -9.601565,9.59961 l 0,36 0,20.69922 c 0,5.3 4.301565,9.59961 9.601565,9.59961 l 56.69922,0 c 5.3,0 9.599613,-4.29961 9.599613,-9.59961 l 0,-20.69922 0,-36 c 0,-5.3 -4.299613,-9.59961 -9.599613,-9.59961 l -12.40039,0 -31.90039,0 z m 0.89844,10.5 9.90039,0 35.09961,0 9.90039,0 0,24.5 0,30.39844 -54.90039,0 0,-30.39844 z"
               style="fill:#c9c8cb" /><path
               inkscape:connector-curvature="0"
               id="rect1621-7"
               d="m 51.120947,317.93118 c -0.36457,0 -0.66444,0.11603 -0.89881,0.35038 -0.23436,0.23436 -0.35155,0.53422 -0.35155,0.89881 l 0,7.49982 c 0,0.36459 0.11719,0.66445 0.35155,0.89881 0.23437,0.23435 0.53424,0.35155 0.89881,0.35155 l 7.49982,0 c 0.36458,0 0.66443,-0.1172 0.89881,-0.35155 0.23436,-0.23436 0.35155,-0.53422 0.35155,-0.89881 l 0,-7.49982 c 0,-0.36459 -0.11719,-0.66445 -0.35155,-0.89881 -0.23438,-0.23435 -0.53423,-0.35038 -0.89881,-0.35038 z"
               style="opacity:1;fill:#4d4d4d;fill-opacity:1;stroke:none;stroke-width:0.5999856;stroke-linecap:butt;stroke-linejoin:miter;stroke-miterlimit:4;stroke-dasharray:none;stroke-dashoffset:0;stroke-opacity:1" /></g></g><g
           transform="translate(-1.1063145e-5,-1.870616)"
           id="g4521"><g
             id="g1762"
             transform="matrix(0.6740365,0,0,0.6740365,4.6747712,112.74421)"><path
               inkscape:connector-curvature="0"
               id="path888-3-9"
               d="m 114.4417,269.98141 c -5.3,0 -9.60156,4.29961 -9.60156,9.59961 l 0,36 0,20.69922 c 0,5.3 4.30156,9.59961 9.60156,9.59961 l 56.69922,0 c 5.3,0 9.59961,-4.29961 9.59961,-9.59961 l 0,-20.69922 0,-36 c 0,-5.3 -4.29961,-9.59961 -9.59961,-9.59961 l -12.40039,0 -31.90039,0 z m 0.89844,10.5 9.90039,0 35.09961,0 9.90039,0 0,24.5 0,30.39844 -54.90039,0 0,-30.39844 z"
               style="fill:#c9c8cb" /><g
               transform="matrix(0.59998566,0,0,0.59998566,41.779485,47.979719)"
               id="g1749"><path
                 inkscape:connector-curvature="0"
                 style="opacity:1;fill:#4d4d4d;fill-opacity:1;stroke:none;stroke-width:0.99999994;stroke-linecap:butt;stroke-linejoin:miter;stroke-miterlimit:4;stroke-dasharray:none;stroke-dashoffset:0;stroke-opacity:1"
                 d="m 162.10542,449.92986 c -0.60764,0 -1.10743,0.19338 -1.49805,0.58398 -0.39062,0.3906 -0.58594,0.89039 -0.58594,1.49805 l 0,12.5 c 0,0.60767 0.19532,1.10744 0.58594,1.49804 0.39062,0.3906 0.89041,0.58594 1.49805,0.58594 l 12.5,0 c 0.60764,0 1.10741,-0.19534 1.49804,-0.58594 0.39062,-0.3906 0.58594,-0.89037 0.58594,-1.49804 l 0,-12.5 c 0,-0.60766 -0.19532,-1.10745 -0.58594,-1.49805 -0.39063,-0.3906 -0.8904,-0.58398 -1.49804,-0.58398 z"
                 id="rect1621-3-1" /><path
                 inkscape:connector-curvature="0"
                 style="opacity:1;fill:#4d4d4d;fill-opacity:1;stroke:none;stroke-width:0.99999994;stroke-linecap:butt;stroke-linejoin:miter;stroke-miterlimit:4;stroke-dasharray:none;stroke-dashoffset:0;stroke-opacity:1"
                 d="m 162.10547,399.92773 c -0.60764,0 -1.10743,0.19339 -1.49805,0.58399 -0.39062,0.3906 -0.58594,0.89039 -0.58594,1.49805 l 0,9.41211 0,3.08789 0,9.41211 0,5.58398 0,1.86914 0,0.6543 0,9.97656 0,1.86914 c 0,0.60767 0.19532,1.10745 0.58594,1.49805 0.39062,0.3906 0.89041,0.58593 1.49805,0.58593 l 12.5,0 c 0.60764,0 1.10742,-0.19533 1.49805,-0.58593 0.39062,-0.3906 0.58593,-0.89038 0.58593,-1.49805 l 0,-12.5 0,-1.86914 0,-9.97656 0,-5.01953 0,-3.08789 0,-9.41211 c 0,-0.60766 -0.19531,-1.10745 -0.58593,-1.49805 -0.39063,-0.3906 -0.89041,-0.58399 -1.49805,-0.58399 z"
                 id="rect1621-3" /></g></g></g></g><path
         inkscape:connector-curvature="0"
         id="path888-3-2"
         transform="matrix(1.1915342,0,0,1.1915342,-0.15931598,-152.90944)"
         d="m 6.2617188,361.20117 c -2.9981483,0 -5.42968755,2.43349 -5.42968755,5.43164 l 0,10.75781 0,2.13868 0,0.21679 0,4.0625 0,0.91993 0,1.95507 0,6.15235 0,1.95508 0,4.84765 0,0.13477 0,2.74023 0,5.36719 0,2.74023 0,1.40039 5.93945315,0 0,-1.40039 0,-2.74023 0,-5.36719 0,-2.74023 0,-0.13477 0,-4.84765 0,-1.95508 0,-6.15235 0,-1.95507 0,-0.91993 0,-4.0625 0,-2.35547 -0.00195,0 0,-10.24804 5.6015626,0 3.777344,0 6.673828,0 1.964843,0 4.449219,0 3.658203,0 1.720703,0 3.259766,0 2.740234,0 5.367188,0 2.740234,0 0.398438,0 4.583984,0 3.523438,0 4.583984,0 0.398438,0 2.740234,0 5.367187,0 2.740235,0 4.0625,0 0.917968,0 1.957032,0 6.15039,0 1.957032,0 4.845703,0 0.134765,0 2.740235,0 5.367188,0 2.74023,0 2.23047,0 2.75195,0 1.69727,0 6.41015,0 2.22852,0 2.74023,0 5.36719,0 2.74024,0 4.0625,0 0.91992,0 8.10742,0 6.80273,0 7.30274,0 5.59961,0 0,10.85742 -0.002,0 0,2.35742 0,4.06055 0,0.91992 0,1.95508 0,6.15234 0,1.95508 0,4.84766 0,0.13476 0,2.74024 0,5.36718 0,2.74024 0,1.40234 0.002,0 0,11.89649 -5.59961,0 -7.30274,0 -6.80273,0 -8.10742,0 -0.91992,0 -4.0625,0 -2.74024,0 -5.36719,0 -2.74023,0 -2.22852,0 -6.41015,0 -1.69727,0 -2.75195,0 -2.23047,0 -2.74023,0 -5.367188,0 -2.740235,0 -0.134765,0 -4.845703,0 -1.957032,0 -6.15039,0 -1.957032,0 -0.917968,0 -4.0625,0 -2.740235,0 -5.367187,0 -2.740234,0 -0.398438,0 -4.583984,0 -3.523438,0 -4.583984,0 -0.398438,0 -2.740234,0 -5.367188,0 -2.740234,0 -3.259766,0 -1.720703,0 -3.658203,0 -4.449219,0 -1.964843,0 -6.673828,0 -3.777344,0 -5.6015626,0 0,-12.38672 -5.93749995,0 0,12.89648 c 0,2.99815 2.43154435,5.42969 5.42968755,5.42969 l 7.013672,0 2.873047,0 6.673828,0 1.964843,0 4.449219,0 3.658203,0 2.625,0 2.355469,0 2.740234,0 5.367188,0 2.740234,0 0.398438,0 4.583984,0 3.523438,0 4.583984,0 0.398438,0 2.740234,0 5.367187,0 2.740235,0 4.0625,0 0.917968,0 1.957032,0 6.15039,0 1.957032,0 4.845703,0 0.134765,0 2.740235,0 5.367188,0 2.74023,0 2.23047,0 2.75195,0 1.69727,0 6.41015,0 2.22852,0 2.74023,0 5.36719,0 2.74024,0 4.0625,0 0.91992,0 8.10742,0 6.80273,0 6.39649,0 7.01367,0 c 2.99814,0 5.43164,-2.43154 5.43164,-5.42969 l 0,-12.89648 0,-0.91211 0,-2.74024 0,-5.36718 0,-2.74024 0,-0.13476 0,-4.84766 0,-1.95508 0,-6.15234 0,-1.95508 0,-0.91992 0,-4.06055 0,-0.82812 0,-1.5293 0,-11.36719 c 0,-2.99815 -2.4335,-5.43164 -5.43164,-5.43164 l -7.01367,0 -6.39649,0 -6.80273,0 -8.10742,0 -0.91992,0 -4.0625,0 -2.74024,0 -5.36719,0 -2.74023,0 -2.22852,0 -6.41015,0 -1.69727,0 -2.75195,0 -2.23047,0 -2.74023,0 -5.367188,0 -2.740235,0 -0.134765,0 -4.845703,0 -1.957032,0 -6.15039,0 -1.957032,0 -0.917968,0 -4.0625,0 -2.740235,0 -5.367187,0 -2.740234,0 -0.398438,0 -4.583984,0 -3.523438,0 -4.583984,0 -0.398438,0 -2.740234,0 -5.367188,0 -2.740234,0 -2.355469,0 -2.625,0 -3.658203,0 -4.449219,0 -1.964843,0 -6.673828,0 -2.873047,0 -7.013672,0 z"
         style="fill:#c9c8cb;stroke-width:1" /></g><g
       id="g4946"><path
         style="fill:#f7a896"
         inkscape:connector-curvature="0"
         id="path896-5"
         d="m 6.3017128,339.68971 63.3999992,0 c 2.4,0 4.4,2 4.4,4.4 l 0,1.8 c 0,2.4 -2,4.4 -4.4,4.4 l -63.3999992,0 c -2.4,0 -4.4000002,-2 -4.4000002,-4.4 l 0,-1.8 c 0,-2.5 2.0000002,-4.4 4.4000002,-4.4 z"
         class="st7" /><path
         style="fill:#f7a896"
         d="m 85.713085,339.6901 c -2.399999,0 -4.40039,1.90039 -4.40039,4.40039 l 0,1.79883 c 0,2.4 2.000391,4.40039 4.40039,4.40039 l 1.74414,0 10.998047,0 1.744138,0 c 2.40001,0 4.4004,-2.00039 4.4004,-4.40039 l 0,-1.79883 c 0,-2.5 -2.00039,-4.40039 -4.4004,-4.40039 l -1.744138,0 -10.998047,0 -1.74414,0 z"
         id="path896-5-0"
         inkscape:connector-curvature="0" /><path
         style="fill:#f7a896"
         d="m 116.21118,339.6901 c -2.4,0 -4.40039,1.90039 -4.40039,4.40039 l 0,1.79883 c 0,2.4 2.00039,4.40039 4.40039,4.40039 l 1.74414,0 10.99805,0 1.74414,0 c 2.4,0 4.40039,-2.00039 4.40039,-4.40039 l 0,-1.79883 c 0,-2.5 -2.00039,-4.40039 -4.40039,-4.40039 l -1.74414,0 -10.99805,0 -1.74414,0 z"
         id="path896-5-0-6"
         inkscape:connector-curvature="0" /></g><g
       transform="translate(0,-0.17657471)"
       id="g4941"><path
         inkscape:connector-curvature="0"
         style="fill:#f7a896"
         d="m 7.0976562,317.5957 c -2.399999,0 -4.4003906,1.90039 -4.4003906,4.40039 l 0,1.79883 c 0,2.4 2.0003917,4.40039 4.4003906,4.40039 l 1.7441407,0 10.9980471,0 0.353515,0 1.390625,0 0.353516,0 10.998047,0 1.744141,0 c 2.40001,0 4.40039,-2.00039 4.40039,-4.40039 l 0,-1.79883 c 0,-2.5 -2.000381,-4.40039 -4.40039,-4.40039 l -1.744141,0 -10.998047,0 -0.353516,0 -1.390625,0 -0.353515,0 -10.9980471,0 -1.7441407,0 z"
         id="path896-5-0-2" /><path
         style="fill:#f7a896"
         d="m 51.187935,317.5957 c -2.399999,0 -4.400391,1.90039 -4.400391,4.40039 l 0,1.79883 c 0,2.4 2.000392,4.40039 4.400391,4.40039 l 1.74414,0 10.998047,0 1.744141,0 c 0.188012,0 0.368443,-0.0329 0.550781,-0.0566 0.182725,0.0239 0.362355,0.0566 0.550781,0.0566 l 1.744141,0 10.998047,0 1.744141,0 c 2.40001,0 4.40039,-2.00039 4.40039,-4.40039 l 0,-1.79883 c 0,-2.5 -2.00038,-4.40039 -4.40039,-4.40039 l -1.744141,0 -10.998047,0 -1.744141,0 c -0.188442,0 -0.36804,0.0319 -0.550781,0.0547 -0.182353,-0.0227 -0.362753,-0.0547 -0.550781,-0.0547 l -1.744141,0 -10.998047,0 -1.74414,0 z"
         id="path896-5-0-20"
         inkscape:connector-curvature="0" /><path
         style="fill:#f7a896"
         d="m 97.7704,317.5957 c -2.4,0 -4.40039,1.90039 -4.40039,4.40039 l 0,1.79883 c 0,2.4 2.00039,4.40039 4.40039,4.40039 l 1.74414,0 10.99805,0 1.59961,0 0.14453,0 1.59961,0 10.99805,0 1.74414,0 1.59765,0 10.99805,0 1.74414,0 c 2.40001,0 4.40039,-2.00039 4.40039,-4.40039 l 0,-1.79883 c 0,-2.5 -2.00038,-4.40039 -4.40039,-4.40039 l -1.74414,0 -10.99805,0 -1.59765,0 -1.74414,0 -10.99805,0 -1.59961,0 -0.14453,0 -1.59961,0 -10.99805,0 -1.74414,0 z"
         id="path896-5-0-3"
         inkscape:connector-curvature="0" /></g><g
       id="g4936"><path
         style="fill:#f7a896"
         d="m 7.7217587,295.14836 c -2.399999,0 -4.40039,1.90039 -4.40039,4.40039 l 0,1.79883 c 0,2.4 2.000391,4.40039 4.40039,4.40039 l 1.74414,0 10.9980473,0 1.744133,0 c 2.40001,0 4.4004,-2.00039 4.4004,-4.40039 l 0,-1.79883 c 0,-2.5 -2.00039,-4.40039 -4.4004,-4.40039 l -1.744133,0 -10.9980473,0 -1.74414,0 z"
         id="path896-5-0-0"
         inkscape:connector-curvature="0" /><path
         style="fill:#f7a896"
         d="m 38.74295,295.14836 c -2.4,0 -4.40039,1.90039 -4.40039,4.40039 l 0,1.79883 c 0,2.4 2.00039,4.40039 4.40039,4.40039 l 1.74414,0 10.99805,0 1.74414,0 c 2.4,0 4.40039,-2.00039 4.40039,-4.40039 l 0,-1.79883 c 0,-2.5 -2.00039,-4.40039 -4.40039,-4.40039 l -1.74414,0 -10.99805,0 -1.74414,0 z"
         id="path896-5-0-6-5"
         inkscape:connector-curvature="0" /><path
         style="fill:#f7a896"
         d="m 69.764145,295.14836 c -2.399999,0 -4.400391,1.90039 -4.400391,4.40039 l 0,1.79883 c 0,2.4 2.000392,4.40039 4.400391,4.40039 l 1.74414,0 10.998047,0 1.744141,0 c 0.188012,0 0.368443,-0.0329 0.550781,-0.0566 0.182725,0.0239 0.362355,0.0566 0.550781,0.0566 l 1.744141,0 10.998047,0 1.744141,0 c 2.400016,0 4.400396,-2.00039 4.400396,-4.40039 l 0,-1.79883 c 0,-2.5 -2.00038,-4.40039 -4.400396,-4.40039 l -1.744141,0 -10.998047,0 -1.744141,0 c -0.188442,0 -0.36804,0.0319 -0.550781,0.0547 -0.182353,-0.0227 -0.362753,-0.0547 -0.550781,-0.0547 l -1.744141,0 -10.998047,0 -1.74414,0 z"
         id="path896-5-0-20-6"
         inkscape:connector-curvature="0" /></g></g></svg>