<?xml version="1.0" encoding="utf-8"?>
<!-- Generator: Adobe Illustrator 24.1.1, SVG Export Plug-In . SVG Version: 6.00 Build 0)  -->
<svg version="1.1" id="Layer_1" xmlns="http://www.w3.org/2000/svg" xmlns:xlink="http://www.w3.org/1999/xlink" x="0px" y="0px"
	 viewBox="0 0 400 225" style="enable-background:new 0 0 400 225;" xml:space="preserve">
<style type="text/css">
	.st0{opacity:0.1;clip-path:url(#SVGID_2_);fill:#34495E;}
	.st1{clip-path:url(#SVGID_2_);fill:#FFFFFF;}
	.st2{clip-path:url(#SVGID_2_);}
	.st3{fill:#3D6084;}
	.st4{clip-path:url(#SVGID_2_);fill:#23C596;}
	.st5{fill:#E66D7E;}
	.st6{fill:#FFFFFF;}
</style>
<g>
	<defs>
		<rect id="SVGID_1_" width="400" height="225"/>
	</defs>
	<clipPath id="SVGID_2_">
		<use xlink:href="#SVGID_1_"  style="overflow:visible;"/>
	</clipPath>
	<path class="st0" d="M151.9,150.8h-71c-3.3,0-6-2.7-6-6V81c0-3.3,2.7-6,6-6h71c3.3,0,6,2.7,6,6v63.8
		C157.9,148.1,155.3,150.8,151.9,150.8z"/>
	<path class="st1" d="M145.6,143.9H77c-3.3,0-6-2.7-6-6V77.5c0-3.3,2.7-6,6-6h68.6c3.3,0,6,2.7,6,6v60.4
		C151.6,141.2,148.9,143.9,145.6,143.9z"/>
	<g class="st2">
		<g>
			<path class="st3" d="M123,137.8h-4.3c-0.5,0-0.9,0.4-0.9,0.9s0.4,0.9,0.9,0.9h4.3c0.5,0,0.9-0.4,0.9-0.9S123.4,137.8,123,137.8z"
				/>
			<path class="st3" d="M97.1,137.8h-4.3c-0.5,0-0.9,0.4-0.9,0.9s0.4,0.9,0.9,0.9h4.3c0.5,0,0.9-0.4,0.9-0.9S97.6,137.8,97.1,137.8z
				"/>
			<path class="st3" d="M88.5,137.8h-4.3c-0.5,0-0.9,0.4-0.9,0.9s0.4,0.9,0.9,0.9h4.3c0.5,0,0.9-0.4,0.9-0.9S89,137.8,88.5,137.8z"
				/>
			<path class="st3" d="M90.5,76h-4.3c-0.5,0-0.9,0.4-0.9,0.9s0.4,0.9,0.9,0.9h4.3c0.5,0,0.9-0.4,0.9-0.9S90.9,76,90.5,76z"/>
			<path class="st3" d="M105.7,137.8h-4.3c-0.5,0-0.9,0.4-0.9,0.9s0.4,0.9,0.9,0.9h4.3c0.5,0,0.9-0.4,0.9-0.9
				S106.2,137.8,105.7,137.8z"/>
			<path class="st3" d="M116.3,76H112c-0.5,0-0.9,0.4-0.9,0.9s0.4,0.9,0.9,0.9h4.3c0.5,0,0.9-0.4,0.9-0.9S116.8,76,116.3,76z"/>
			<path class="st3" d="M107.7,76h-4.3c-0.5,0-0.9,0.4-0.9,0.9s0.4,0.9,0.9,0.9h4.3c0.5,0,0.9-0.4,0.9-0.9S108.2,76,107.7,76z"/>
			<path class="st3" d="M114.4,137.8h-4.3c-0.5,0-0.9,0.4-0.9,0.9s0.4,0.9,0.9,0.9h4.3c0.5,0,0.9-0.4,0.9-0.9
				S114.8,137.8,114.4,137.8z"/>
			<path class="st3" d="M99.1,76h-4.3c-0.5,0-0.9,0.4-0.9,0.9s0.4,0.9,0.9,0.9h4.3c0.5,0,0.9-0.4,0.9-0.9S99.6,76,99.1,76z"/>
			<path class="st3" d="M77.6,114.1c0.5,0,0.9-0.4,0.9-0.9v-4.3c0-0.5-0.4-0.9-0.9-0.9s-0.9,0.4-0.9,0.9v4.3
				C76.7,113.7,77.1,114.1,77.6,114.1z"/>
			<path class="st3" d="M77.6,96.8c0.5,0,0.9-0.4,0.9-0.9v-4.3c0-0.5-0.4-0.9-0.9-0.9s-0.9,0.4-0.9,0.9v4.3
				C76.7,96.4,77.1,96.8,77.6,96.8z"/>
			<path class="st3" d="M77.6,88.2c0.5,0,0.9-0.4,0.9-0.9V83c0-0.5-0.4-0.9-0.9-0.9s-0.9,0.4-0.9,0.9v4.3
				C76.7,87.8,77.1,88.2,77.6,88.2z"/>
			<path class="st3" d="M80.3,137.4c-1.1-0.5-1.8-1.6-1.9-2.7c0-0.5-0.5-0.8-0.9-0.8c-0.5,0-0.8,0.5-0.8,0.9
				c0.2,1.8,1.2,3.3,2.8,4.1c0.1,0.1,0.3,0.1,0.4,0.1c0.3,0,0.6-0.2,0.8-0.5C80.9,138.1,80.7,137.6,80.3,137.4z"/>
			<path class="st3" d="M81.8,76L81.8,76c-1.8,0-3.4,0.9-4.3,2.4c-0.3,0.4-0.1,0.9,0.3,1.2c0.1,0.1,0.3,0.1,0.5,0.1
				c0.3,0,0.6-0.1,0.7-0.4c0.6-1,1.7-1.6,2.9-1.6c0.5,0,0.9-0.4,0.9-0.9C82.7,76.4,82.3,76,81.8,76z"/>
			<path class="st3" d="M77.6,122.7c0.5,0,0.9-0.4,0.9-0.9v-4.3c0-0.5-0.4-0.9-0.9-0.9s-0.9,0.4-0.9,0.9v4.3
				C76.7,122.3,77.1,122.7,77.6,122.7z"/>
			<path class="st3" d="M77.6,131.3c0.5,0,0.9-0.4,0.9-0.9v-4.3c0-0.5-0.4-0.9-0.9-0.9s-0.9,0.4-0.9,0.9v4.3
				C76.7,130.9,77.1,131.3,77.6,131.3z"/>
			<path class="st3" d="M77.6,105.4c0.5,0,0.9-0.4,0.9-0.9v-4.2c0-0.5-0.4-0.9-0.9-0.9s-0.9,0.4-0.9,0.9v4.3
				C76.7,105.1,77.1,105.4,77.6,105.4z"/>
			<path class="st3" d="M144.4,114.3c-0.5,0-0.9,0.4-0.9,0.9v4.3c0,0.5,0.4,0.9,0.9,0.9s0.9-0.4,0.9-0.9v-4.3
				C145.3,114.7,144.9,114.3,144.4,114.3z"/>
			<path class="st3" d="M125.7,76.4c-0.1-0.3-0.4-0.4-0.7-0.4h-4.3c-0.5,0-0.9,0.4-0.9,0.9s0.4,0.9,0.9,0.9h4.3
				c0.3,0,0.6-0.2,0.7-0.4V76.4z"/>
			<path class="st3" d="M144.4,105.7c-0.5,0-0.9,0.4-0.9,0.9v4.3c0,0.5,0.4,0.9,0.9,0.9s0.9-0.4,0.9-0.9v-4.3
				C145.3,106.1,144.9,105.7,144.4,105.7z"/>
			<path class="st3" d="M142.4,76.5c-0.7-0.4-1.5-0.5-2.3-0.5h-2.3c-0.5,0-0.9,0.4-0.9,0.9s0.4,0.9,0.9,0.9h2.3c0.5,0,1,0.1,1.5,0.4
				c0.1,0.1,0.3,0.1,0.4,0.1c0.3,0,0.6-0.2,0.8-0.5C143,77.2,142.8,76.7,142.4,76.5z"/>
			<path class="st3" d="M144.4,131.6c-0.5,0-0.9,0.4-0.9,0.9v1.9c0,0.6-0.2,1.3-0.5,1.8c-0.2,0.4-0.1,0.9,0.3,1.2
				c0.1,0.1,0.3,0.1,0.5,0.1c0.3,0,0.6-0.1,0.7-0.4c0.5-0.8,0.8-1.7,0.8-2.7v-1.9C145.3,131.9,144.9,131.6,144.4,131.6z"/>
			<path class="st3" d="M144.4,97.1c-0.5,0-0.9,0.4-0.9,0.9v4.3c0,0.5,0.4,0.9,0.9,0.9s0.9-0.4,0.9-0.9V98
				C145.3,97.4,144.9,97.1,144.4,97.1z"/>
			<path class="st3" d="M145.2,80.6c0-0.5-0.5-0.8-0.9-0.8c-0.5,0-0.8,0.5-0.8,0.9c0,0.1,0,0.2,0,0.4V85c0,0.5,0.4,0.9,0.9,0.9
				s0.9-0.4,0.9-0.9v-3.9C145.3,80.9,145.3,80.8,145.2,80.6z"/>
			<path class="st3" d="M144.4,88.4c-0.5,0-0.9,0.4-0.9,0.9v4.3c0,0.5,0.4,0.9,0.9,0.9s0.9-0.4,0.9-0.9v-4.3
				C145.3,88.8,144.9,88.4,144.4,88.4z"/>
			<path class="st3" d="M144.4,122.9c-0.5,0-0.9,0.4-0.9,0.9v4.3c0,0.5,0.4,0.9,0.9,0.9s0.9-0.4,0.9-0.9v-4.3
				C145.3,123.3,144.9,122.9,144.4,122.9z"/>
			<path class="st3" d="M140.1,137.8h-4.3c-0.5,0-0.9,0.4-0.9,0.9s0.4,0.9,0.9,0.9h4.4c0.5,0,0.8-0.4,0.8-0.9
				S140.6,137.8,140.1,137.8z"/>
			<path class="st3" d="M133.5,76h-4.3c-0.5,0-0.9,0.4-0.9,0.9s0.4,0.9,0.9,0.9h4.3c0.5,0,0.9-0.4,0.9-0.9S133.9,76,133.5,76z"/>
			<path class="st3" d="M131.5,137.8h-4.3c-0.5,0-0.9,0.4-0.9,0.9s0.4,0.9,0.9,0.9h4.3c0.5,0,0.9-0.4,0.9-0.9S132,137.8,131.5,137.8
				z"/>
		</g>
	</g>
	<path class="st0" d="M242.5,150.8h-71c-3.3,0-6-2.7-6-6V81c0-3.3,2.7-6,6-6h71c3.3,0,6,2.7,6,6v63.8
		C248.5,148.1,245.9,150.8,242.5,150.8z"/>
	<path class="st1" d="M236.2,143.9h-68.6c-3.3,0-6-2.7-6-6V77.5c0-3.3,2.7-6,6-6h68.6c3.3,0,6,2.7,6,6v60.4
		C242.2,141.2,239.5,143.9,236.2,143.9z"/>
	<path class="st0" d="M332.3,150.8h-71c-3.3,0-6-2.7-6-6V81c0-3.3,2.7-6,6-6h71c3.3,0,6,2.7,6,6v63.8
		C338.3,148.1,335.7,150.8,332.3,150.8z"/>
	<path class="st1" d="M326,143.9h-68.6c-3.3,0-6-2.7-6-6V77.5c0-3.3,2.7-6,6-6H326c3.3,0,6,2.7,6,6v60.4
		C332,141.2,329.3,143.9,326,143.9z"/>
	<g class="st2">
		<g>
			<path class="st3" d="M303.4,137.8h-4.3c-0.5,0-0.9,0.4-0.9,0.9s0.4,0.9,0.9,0.9h4.3c0.5,0,0.9-0.4,0.9-0.9
				S303.8,137.8,303.4,137.8z"/>
			<path class="st3" d="M277.5,137.8h-4.3c-0.5,0-0.9,0.4-0.9,0.9s0.4,0.9,0.9,0.9h4.3c0.5,0,0.9-0.4,0.9-0.9S278,137.8,277.5,137.8
				z"/>
			<path class="st3" d="M268.9,137.8h-4.3c-0.5,0-0.9,0.4-0.9,0.9s0.4,0.9,0.9,0.9h4.3c0.5,0,0.9-0.4,0.9-0.9
				S269.4,137.8,268.9,137.8z"/>
			<path class="st3" d="M270.9,76h-4.3c-0.5,0-0.9,0.4-0.9,0.9s0.4,0.9,0.9,0.9h4.3c0.5,0,0.9-0.4,0.9-0.9S271.3,76,270.9,76z"/>
			<path class="st3" d="M286.1,137.8h-4.3c-0.5,0-0.9,0.4-0.9,0.9s0.4,0.9,0.9,0.9h4.3c0.5,0,0.9-0.4,0.9-0.9
				S286.6,137.8,286.1,137.8z"/>
			<path class="st3" d="M296.7,76h-4.3c-0.5,0-0.9,0.4-0.9,0.9s0.4,0.9,0.9,0.9h4.3c0.5,0,0.9-0.4,0.9-0.9S297.2,76,296.7,76z"/>
			<path class="st3" d="M288.1,76h-4.3c-0.5,0-0.9,0.4-0.9,0.9s0.4,0.9,0.9,0.9h4.3c0.5,0,0.9-0.4,0.9-0.9S288.6,76,288.1,76z"/>
			<path class="st3" d="M294.8,137.8h-4.3c-0.5,0-0.9,0.4-0.9,0.9s0.4,0.9,0.9,0.9h4.3c0.5,0,0.9-0.4,0.9-0.9
				S295.2,137.8,294.8,137.8z"/>
			<path class="st3" d="M279.5,76h-4.3c-0.5,0-0.9,0.4-0.9,0.9s0.4,0.9,0.9,0.9h4.3c0.5,0,0.9-0.4,0.9-0.9S280,76,279.5,76z"/>
			<path class="st3" d="M258,114.1c0.5,0,0.9-0.4,0.9-0.9v-4.3c0-0.5-0.4-0.9-0.9-0.9s-0.9,0.4-0.9,0.9v4.3
				C257.1,113.7,257.5,114.1,258,114.1z"/>
			<path class="st3" d="M258,96.8c0.5,0,0.9-0.4,0.9-0.9v-4.3c0-0.5-0.4-0.9-0.9-0.9s-0.9,0.4-0.9,0.9v4.3
				C257.1,96.4,257.5,96.8,258,96.8z"/>
			<path class="st3" d="M258,88.2c0.5,0,0.9-0.4,0.9-0.9V83c0-0.5-0.4-0.9-0.9-0.9s-0.9,0.4-0.9,0.9v4.3
				C257.1,87.8,257.5,88.2,258,88.2z"/>
			<path class="st3" d="M260.7,137.4c-1.1-0.5-1.8-1.6-1.9-2.7c0-0.5-0.5-0.8-0.9-0.8c-0.5,0-0.8,0.5-0.8,0.9
				c0.2,1.8,1.2,3.3,2.8,4.1c0.1,0.1,0.3,0.1,0.4,0.1c0.3,0,0.6-0.2,0.8-0.5C261.3,138.1,261.1,137.6,260.7,137.4z"/>
			<path class="st3" d="M262.2,76L262.2,76c-1.8,0-3.4,0.9-4.3,2.4c-0.3,0.4-0.1,0.9,0.3,1.2c0.1,0.1,0.3,0.1,0.5,0.1
				c0.3,0,0.6-0.1,0.7-0.4c0.6-1,1.7-1.6,2.9-1.6c0.5,0,0.9-0.4,0.9-0.9C263.1,76.4,262.7,76,262.2,76z"/>
			<path class="st3" d="M258,122.7c0.5,0,0.9-0.4,0.9-0.9v-4.3c0-0.5-0.4-0.9-0.9-0.9s-0.9,0.4-0.9,0.9v4.3
				C257.1,122.3,257.5,122.7,258,122.7z"/>
			<path class="st3" d="M258,131.3c0.5,0,0.9-0.4,0.9-0.9v-4.3c0-0.5-0.4-0.9-0.9-0.9s-0.9,0.4-0.9,0.9v4.3
				C257.1,130.9,257.5,131.3,258,131.3z"/>
			<path class="st3" d="M258,105.4c0.5,0,0.9-0.4,0.9-0.9v-4.2c0-0.5-0.4-0.9-0.9-0.9s-0.9,0.4-0.9,0.9v4.3
				C257.1,105.1,257.5,105.4,258,105.4z"/>
			<path class="st3" d="M324.8,114.3c-0.5,0-0.9,0.4-0.9,0.9v4.3c0,0.5,0.4,0.9,0.9,0.9s0.9-0.4,0.9-0.9v-4.3
				C325.7,114.7,325.3,114.3,324.8,114.3z"/>
			<path class="st3" d="M306.1,76.4c-0.1-0.3-0.4-0.4-0.7-0.4h-4.3c-0.5,0-0.9,0.4-0.9,0.9s0.4,0.9,0.9,0.9h4.3
				c0.3,0,0.6-0.2,0.7-0.4V76.4z"/>
			<path class="st3" d="M324.8,105.7c-0.5,0-0.9,0.4-0.9,0.9v4.3c0,0.5,0.4,0.9,0.9,0.9s0.9-0.4,0.9-0.9v-4.3
				C325.7,106.1,325.3,105.7,324.8,105.7z"/>
			<path class="st3" d="M322.8,76.5c-0.7-0.4-1.5-0.5-2.3-0.5h-2.3c-0.5,0-0.9,0.4-0.9,0.9s0.4,0.9,0.9,0.9h2.3c0.5,0,1,0.1,1.5,0.4
				c0.1,0.1,0.3,0.1,0.4,0.1c0.3,0,0.6-0.2,0.8-0.5C323.4,77.2,323.2,76.7,322.8,76.5z"/>
			<path class="st3" d="M324.8,131.6c-0.5,0-0.9,0.4-0.9,0.9v1.9c0,0.6-0.2,1.3-0.5,1.8c-0.2,0.4-0.1,0.9,0.3,1.2
				c0.1,0.1,0.3,0.1,0.5,0.1c0.3,0,0.6-0.1,0.7-0.4c0.5-0.8,0.8-1.7,0.8-2.7v-1.9C325.7,131.9,325.3,131.6,324.8,131.6z"/>
			<path class="st3" d="M324.8,97.1c-0.5,0-0.9,0.4-0.9,0.9v4.3c0,0.5,0.4,0.9,0.9,0.9s0.9-0.4,0.9-0.9V98
				C325.7,97.4,325.3,97.1,324.8,97.1z"/>
			<path class="st3" d="M325.6,80.6c0-0.5-0.5-0.8-0.9-0.8c-0.5,0-0.8,0.5-0.8,0.9c0,0.1,0,0.2,0,0.4V85c0,0.5,0.4,0.9,0.9,0.9
				s0.9-0.4,0.9-0.9v-3.9C325.7,80.9,325.7,80.8,325.6,80.6z"/>
			<path class="st3" d="M324.8,88.4c-0.5,0-0.9,0.4-0.9,0.9v4.3c0,0.5,0.4,0.9,0.9,0.9s0.9-0.4,0.9-0.9v-4.3
				C325.7,88.8,325.3,88.4,324.8,88.4z"/>
			<path class="st3" d="M324.8,122.9c-0.5,0-0.9,0.4-0.9,0.9v4.3c0,0.5,0.4,0.9,0.9,0.9s0.9-0.4,0.9-0.9v-4.3
				C325.7,123.3,325.3,122.9,324.8,122.9z"/>
			<path class="st3" d="M320.5,137.8h-4.3c-0.5,0-0.9,0.4-0.9,0.9s0.4,0.9,0.9,0.9h4.4c0.5,0,0.8-0.4,0.8-0.9S321,137.8,320.5,137.8
				z"/>
			<path class="st3" d="M313.9,76h-4.3c-0.5,0-0.9,0.4-0.9,0.9s0.4,0.9,0.9,0.9h4.3c0.5,0,0.9-0.4,0.9-0.9S314.3,76,313.9,76z"/>
			<path class="st3" d="M311.9,137.8h-4.3c-0.5,0-0.9,0.4-0.9,0.9s0.4,0.9,0.9,0.9h4.3c0.5,0,0.9-0.4,0.9-0.9
				S312.4,137.8,311.9,137.8z"/>
		</g>
	</g>
	<path class="st4" d="M233,138.9h-62.1c-1.7,0-3-1.3-3-3V79c0-1.7,1.3-3,3-3H233c1.7,0,3,1.3,3,3v56.9
		C236,137.6,234.6,138.9,233,138.9z"/>
	<g class="st2">
		<path class="st5" d="M105.4,120.7c0-3.1,2.4-5.4,5.9-5.4s5.9,2.3,5.9,5.4c0,3-2.4,5.5-5.9,5.5S105.4,123.7,105.4,120.7z
			 M105.4,89.3h11.7l-2,23.1h-7.8L105.4,89.3z"/>
		<path class="st6" d="M205.8,100.3c0-2.1-2-3.4-4.7-3.4c-2.9,0-5.2,1.4-6.6,3.8l-7.9-4.2c2.8-4.7,7.9-7.8,15.7-7.8
			c8.1,0,14,3.5,14,9.9c0,8.2-8.7,9.5-8.7,14.3h-9.4C198.2,106,205.8,104.2,205.8,100.3z M197,121.3c0-3.1,2.4-5.4,6-5.4
			c3.5,0,6,2.3,6,5.4s-2.5,5.6-6,5.6C199.4,126.9,197,124.4,197,121.3z"/>
		<path class="st5" d="M299.6,104.2c0,1.7-0.2,3.1-2,7.1l-3.9,9h-7.3l2.9-10c-2.2-1-3.6-3.1-3.6-6c0-4.2,2.9-6.9,7-6.9
			C296.7,97.3,299.6,100,299.6,104.2z"/>
	</g>
	<g id="_Group_" class="st2">
		<path class="st6" d="M231.1,186.2c-1,0-1.8,0-2.6-0.1c-3.4-0.2-6.6-1.6-9.1-3.9c-2.4-2.2-4.3-4.9-5.5-8l-0.3-0.4
			c-0.9-1.1-1.8-2.1-2.6-3c-1.1-1.2-2.5-2.2-4-2.9c-2.7-1.2-4.5-3.7-4.9-6.7c-0.4-3.2,1.1-6.1,4.1-7.8l0.2-0.1
			c1.7-0.9,3.7-1.4,5.6-1.4c0.1,0,0.2,0,0.3,0v-16.6c0-5.1,4.1-9.1,9.2-9.1c0.5,0,1,0,1.5,0.1c4.5,0.7,7.9,4.7,7.7,9.3v3.2
			c1.3,0.4,2.5,1,3.5,1.9c0.2,0,0.4,0,0.6,0c1,0,2.1,0.2,3,0.5c1.2,0.4,2.4,1.1,3.3,2c0.1,0,0.2,0,0.4,0c3.2,0,6.1,1.6,7.8,4.2
			l0.1,0.2c0.8,1.4,1.3,2.9,1.3,4.5v13.2c0,4.2-1.1,8.4-3.2,12.1c-1.4,2.4-3.3,4.5-5.6,6c-2.4,1.7-5.3,2.6-8.3,2.6L231.1,186.2z"/>
		<path class="st3" d="M245.7,152.3c0,4.4,0,8.8,0,13.2c0,3.4-0.8,6.7-2.5,9.6c-1,1.8-2.4,3.3-4.1,4.4c-1.6,1.1-3.6,1.7-5.5,1.7
			c-1.6,0-3.2,0-4.7,0c-2.2-0.2-4.4-1.1-6-2.6c-1.9-1.7-3.4-3.9-4.3-6.4c-0.1-0.3-0.2-0.5-0.4-0.7c-1.1-1.3-2.2-2.6-3.4-3.9
			c-1.6-1.7-3.5-3.1-5.7-4.1c-1.1-0.5-1.8-1.5-1.9-2.6c-0.2-1.4,0.5-2.3,1.6-3c1.2-0.6,2.6-0.9,3.9-0.8c1.6,0.1,3.1,0.5,4.5,1.4
			l0.2,0.1c0-0.5-0.1-1-0.1-1.4c0-6.7,0-15,0-21.7c0-2.3,1.9-4.2,4.2-4.1c0.2,0,0.5,0,0.7,0.1c2.1,0.3,3.6,2.1,3.5,4.2
			c0,1.8,0,5.2,0,6.9c0,0.6,0,1.2,0,1.8c1.9-1.4,4.6-0.9,5.9,1c0.3,0.4,0.5,0.9,0.6,1.3c1.1-0.9,2.7-1.1,4-0.6
			c1.4,0.5,2.4,1.6,2.7,3.1l0.3-0.2c2-1.3,4.6-0.7,5.9,1.3c0,0,0,0,0,0.1C245.5,150.9,245.7,151.6,245.7,152.3z"/>
	</g>
</g>
</svg>
